<svg width="50" height="31" viewBox="0 0 50 31" fill="none" xmlns="http://www.w3.org/2000/svg">
<path d="M20.4815 13.9585C21.5146 13.4428 22.2957 12.8684 22.8309 12.2477C23.7831 11.1298 24.2529 9.64745 24.2529 7.80999C24.2529 6.02194 23.7831 4.49329 22.8433 3.2117C21.275 1.1241 18.6207 0.0555871 14.8679 0H0V30.1189H13.8628C15.4249 30.1189 16.8719 29.9861 18.2099 29.7144C19.548 29.4395 20.7056 28.9362 21.6858 28.2012C22.557 27.5619 23.2852 26.7683 23.864 25.8326C24.7788 24.4182 25.2363 22.8154 25.2363 21.0304C25.2363 19.3011 24.8348 17.828 24.0382 16.6175C23.2323 15.4069 22.0498 14.5206 20.4815 13.9585ZM6.13325 5.23136H12.8297C14.3016 5.23136 15.5152 5.38886 16.4674 5.70077C17.5689 6.15473 18.1197 7.07809 18.1197 8.4863C18.1197 9.74936 17.6996 10.6326 16.8688 11.1298C16.0317 11.627 14.9457 11.8771 13.6139 11.8771H6.13325V5.23136ZM16.7225 24.3626C15.9819 24.7177 14.9395 24.8938 13.6046 24.8938H6.13325V16.8614H13.7072C15.0266 16.8707 16.0535 17.0436 16.7879 17.3679C18.0948 17.9546 18.7452 19.0293 18.7452 20.6012C18.7452 22.4541 18.073 23.7017 16.7225 24.3626Z" fill="white"/>
<path d="M44.999 1.40527H31.8145V5.15431H44.999V1.40527Z" fill="white"/>
<path d="M49.5794 16.2002C49.3056 14.4554 48.7019 12.9206 47.7622 11.5957C46.7322 10.0949 45.4253 8.9955 43.8352 8.30066C42.2513 7.60273 40.4683 7.25377 38.483 7.25686C35.1503 7.25686 32.4431 8.29139 30.3489 10.345C28.2609 12.4048 27.2153 15.3664 27.2153 19.2266C27.2153 23.3431 28.3698 26.3171 30.6912 28.1422C33.0032 29.9704 35.6731 30.8814 38.7039 30.8814C42.3726 30.8814 45.2261 29.7974 47.2643 27.6357C48.5681 26.2707 49.3056 24.9274 49.4674 23.6087H43.3933C43.0417 24.2603 42.634 24.7699 42.1673 25.1405C41.3209 25.8199 40.2193 26.1596 38.8688 26.1596C37.5837 26.1596 36.4946 25.8785 35.5859 25.3196C34.0861 24.424 33.3019 22.8552 33.2023 20.6225H49.7786C49.8035 18.6985 49.7413 17.2193 49.5794 16.2002ZM33.3517 16.7777C33.5695 15.3293 34.0985 14.1805 34.9387 13.3313C35.7789 12.4851 36.9675 12.059 38.4892 12.0559C39.8926 12.0559 41.0657 12.4542 42.021 13.2541C42.9639 14.0601 43.496 15.2305 43.6049 16.7777H33.3517Z" fill="white"/>
</svg>
