<svg width="41" height="41" viewBox="0 0 41 41" fill="none" xmlns="http://www.w3.org/2000/svg">
<path d="M40.8958 11.9876C40.7997 9.82109 40.4474 8.33167 39.9426 7.04107C39.4219 5.67113 38.6208 4.44462 37.5713 3.42502C36.5458 2.38955 35.3041 1.58494 33.9422 1.0753C32.6367 0.573429 31.1466 0.223086 28.9676 0.127567C26.7725 0.0239577 26.0756 0 20.508 0C14.9404 0 14.2435 0.0239577 12.0564 0.119477C9.87754 0.214997 8.37956 0.56565 7.08185 1.06721C5.70372 1.58494 4.47016 2.38146 3.4447 3.42502C2.40328 4.44462 1.59436 5.67922 1.08148 7.03329C0.576724 8.33167 0.224369 9.81301 0.1283 11.9795C0.0240954 14.1621 0 14.855 0 20.3908C0 25.9266 0.0240954 26.6195 0.120164 28.794C0.216233 30.9605 0.568901 32.4499 1.07365 33.7405C1.59436 35.1105 2.40328 36.337 3.4447 37.3566C4.47016 38.392 5.71186 39.1966 7.07371 39.7063C8.37956 40.2081 9.8694 40.5585 12.0486 40.654C14.2354 40.7498 14.9326 40.7735 20.5002 40.7735C26.0678 40.7735 26.7646 40.7498 28.9517 40.654C31.1306 40.5585 32.6286 40.2081 33.9263 39.7063C36.6822 38.6469 38.8611 36.4804 39.9267 33.7405C40.4311 32.4421 40.7838 30.9605 40.8798 28.794C40.9759 26.6195 41 25.9266 41 20.3908C41 14.855 40.9919 14.1621 40.8958 11.9876ZM37.2029 28.6347C37.1147 30.626 36.7783 31.7013 36.4979 32.4182C35.8089 34.1945 34.391 35.6042 32.6045 36.2894C31.8835 36.5681 30.7942 36.9026 28.7993 36.99C26.6363 37.0859 25.9876 37.1095 20.5161 37.1095C15.0446 37.1095 14.3878 37.0859 12.2326 36.99C10.2299 36.9026 9.14842 36.5681 8.42744 36.2894C7.53841 35.9627 6.72918 35.4449 6.07235 34.7679C5.39142 34.1067 4.87071 33.3102 4.54213 32.4263C4.26175 31.7094 3.92536 30.626 3.83742 28.6428C3.74104 26.4922 3.71726 25.8469 3.71726 20.4067C3.71726 14.9664 3.74104 14.3133 3.83742 12.1708C3.92536 10.1795 4.26175 9.10423 4.54213 8.38737C4.87071 7.50311 5.39142 6.69882 6.08048 6.04543C6.74514 5.36839 7.54623 4.85065 8.43557 4.52427C9.15656 4.24549 10.2462 3.91101 12.2408 3.82327C14.4037 3.72775 15.0527 3.7038 20.5239 3.7038C26.0036 3.7038 26.6523 3.72775 28.8074 3.82327C30.8102 3.91101 31.8916 4.24549 32.6126 4.52427C33.5016 4.85065 34.3109 5.36839 34.9677 6.04543C35.6486 6.7066 36.1693 7.50311 36.4979 8.38737C36.7783 9.10423 37.1147 10.1873 37.2029 12.1708C37.299 14.3214 37.3231 14.9664 37.3231 20.4067C37.3231 25.8469 37.299 26.4841 37.2029 28.6347Z" fill="white"/>
<path d="M20.508 9.9165C14.6923 9.9165 9.97363 14.6079 9.97363 20.3907C9.97363 26.1735 14.6923 30.8649 20.508 30.8649C26.3241 30.8649 31.0424 26.1735 31.0424 20.3907C31.0424 14.6079 26.3241 9.9165 20.508 9.9165ZM20.508 27.185C16.735 27.185 13.6746 24.1424 13.6746 20.3907C13.6746 16.639 16.735 13.5963 20.508 13.5963C24.2813 13.5963 27.3414 16.639 27.3414 20.3907C27.3414 24.1424 24.2813 27.185 20.508 27.185Z" fill="white"/>
<path d="M33.9185 9.50188C33.9185 10.8522 32.8173 11.9471 31.4589 11.9471C30.1008 11.9471 28.9996 10.8522 28.9996 9.50188C28.9996 8.15123 30.1008 7.05664 31.4589 7.05664C32.8173 7.05664 33.9185 8.15123 33.9185 9.50188Z" fill="white"/>
</svg>
