<svg width="38" height="38" viewBox="0 0 38 38" fill="none" xmlns="http://www.w3.org/2000/svg">
<path d="M38 38.0001V24.0826C38 17.2426 36.5275 12.0176 28.5475 12.0176C24.7 12.0176 22.135 14.1076 21.09 16.1026H20.995V12.6351H13.4425V38.0001H21.3275V25.4126C21.3275 22.0876 21.945 18.9051 26.03 18.9051C30.0675 18.9051 30.115 22.6576 30.115 25.6026V37.9526H38V38.0001Z" fill="white"/>
<path d="M0.617493 12.6348H8.50249V37.9998H0.617493V12.6348Z" fill="white"/>
<path d="M4.56 0C2.0425 0 0 2.0425 0 4.56C0 7.0775 2.0425 9.1675 4.56 9.1675C7.0775 9.1675 9.12 7.0775 9.12 4.56C9.12 2.0425 7.0775 0 4.56 0Z" fill="white"/>
</svg>
