<svg width="41" height="29" viewBox="0 0 41 29" fill="none" xmlns="http://www.w3.org/2000/svg">
<path d="M39.4019 2.47693C37.922 0.717632 35.1895 0 29.9711 0H11.0285C5.69067 0 2.91193 0.763923 1.43751 2.63696C0 4.46318 0 7.15397 0 10.8781V17.9762C0 25.1911 1.7056 28.8542 11.0285 28.8542H29.9713C34.4966 28.8542 37.0042 28.221 38.6265 26.6684C40.2902 25.0763 41 22.4767 41 17.9762V10.8781C41 6.95069 40.8888 4.24403 39.4019 2.47693ZM26.3221 15.4071L17.7203 19.9027C17.528 20.0032 17.3177 20.0531 17.1077 20.0531C16.8699 20.0531 16.6326 19.9891 16.4225 19.8619C16.0268 19.6221 15.7851 19.1932 15.7851 18.7305V9.76818C15.7851 9.30634 16.0261 8.87782 16.421 8.63791C16.8161 8.39799 17.3074 8.38159 17.7173 8.59453L26.3191 13.0611C26.7567 13.2884 27.0316 13.7402 27.0322 14.2331C27.0328 14.7264 26.7591 15.1789 26.3221 15.4071Z" fill="white"/>
</svg>
